<svg xmlns="http://www.w3.org/2000/svg" width="100%" height="auto" viewBox="0 0 477 425" version="1.1">
	<path d="M 231 66.665 C 223.497 67.674, 209.987 71.061, 201.448 74.073 C 154.060 90.791, 118.991 130.848, 107.836 181 C 105.810 190.105, 105.503 194.158, 105.520 211.500 C 105.539 229.660, 105.786 232.533, 108.210 242.725 C 120.127 292.841, 156.292 332.983, 203.500 348.498 C 220.749 354.166, 228.981 355.397, 250 355.450 C 266.901 355.493, 270.900 355.188, 280 353.161 C 337.473 340.358, 380.436 296.611, 392.605 238.500 C 395.267 225.792, 395.278 195.163, 392.625 183 C 379.909 124.685, 338.203 82.258, 280.500 68.935 C 273.560 67.333, 267.265 66.781, 253 66.526 C 242.825 66.344, 232.925 66.406, 231 66.665 M 238.591 72.077 C 179.181 77.085, 129.451 119.117, 114.936 176.590 C 97.525 245.529, 134.746 316.635, 201.198 341.382 C 220.050 348.403, 226.041 349.402, 249.500 349.435 C 268.992 349.462, 271.257 349.273, 281.044 346.801 C 293.858 343.565, 302.760 340.277, 313.426 334.844 C 352.990 314.692, 380.179 277.369, 387.540 233.108 C 389.607 220.681, 389.069 193.883, 386.525 182.500 C 377.392 141.634, 353.873 109.992, 316.777 88.663 C 303.442 80.995, 280.628 73.755, 266 72.548 C 250.890 71.302, 248.314 71.257, 238.591 72.077 M 331.256 144.014 C 329.472 144.416, 327.317 145.322, 326.467 146.028 C 325.478 146.848, 321.606 147.344, 315.711 147.405 C 303.277 147.533, 297.316 150.280, 287.567 160.373 C 268.142 180.482, 253.922 219.962, 257.072 245.044 C 258.768 258.550, 265.569 267.913, 278.401 274.406 C 289.297 279.919, 304.355 279.041, 316.006 272.213 C 340.647 257.774, 361.209 214.212, 359.767 179.500 C 359.378 170.146, 358.829 167.272, 356.098 160.291 C 353.925 154.738, 351.853 151.211, 349.693 149.390 C 344.218 144.772, 337.102 142.698, 331.256 144.014 M 241.258 145.065 C 237.398 146.241, 226.520 156.176, 220.438 164.080 C 218.046 167.189, 213.537 173.730, 210.418 178.616 C 207.299 183.502, 205.089 186.600, 205.507 185.500 C 205.925 184.400, 206.435 178.367, 206.641 172.093 C 206.855 165.579, 207.504 160.097, 208.156 159.312 C 209.012 158.281, 209.007 156.967, 208.137 154.062 C 206.772 149.509, 203.635 148, 195.530 148 C 187.832 148, 180.564 152.034, 175.715 159 C 170.402 166.632, 161.711 184.722, 158.134 195.596 C 154.045 208.025, 144.345 244.548, 142.292 255.248 C 140.319 265.528, 140.960 268.489, 145.769 271.297 C 150.382 273.991, 159.583 273.865, 165.447 271.026 C 171.083 268.297, 174.759 262.198, 179.088 248.389 C 180.793 242.950, 182.396 237.834, 182.651 237.020 C 182.934 236.114, 183.889 237.269, 185.108 239.992 C 187.478 245.286, 188.379 245.965, 193.072 245.985 C 199.309 246.011, 205.993 243.043, 210.659 238.173 C 215.423 233.200, 215.686 233.534, 213.554 241.856 C 211.035 251.693, 209.695 264.562, 210.947 266.902 C 214.670 273.857, 230.618 273.616, 236.858 266.509 C 240.021 262.907, 245.390 245.810, 250.121 224.278 C 253.609 208.398, 260.704 167.036, 261.609 157.300 C 262.202 150.916, 262.064 150.186, 259.760 147.507 C 257.561 144.951, 256.522 144.581, 250.885 144.345 C 247.373 144.197, 243.041 144.522, 241.258 145.065 M 315.862 187.616 C 301.370 207.883, 292.069 225.629, 289.334 238.230 C 287.394 247.173, 288.005 251.392, 291.917 256.046 L 294.820 259.500 299.160 254.982 C 311.705 241.923, 322.896 207.909, 321.816 186.116 L 321.500 179.731 315.862 187.616" stroke="none" fill="black" fill-rule="evenodd"/>
</svg>