<svg xmlns="http://www.w3.org/2000/svg" width="100%" height="auto" viewBox="0 0 800 800" version="1.1">
	<path d="M 345.940 338.261 C 342.881 340.323, 339.279 344.458, 334.821 351.026 C 333.399 353.121, 333.198 353.194, 333.511 351.500 C 335.436 341.087, 334.399 338, 328.976 338 C 322.423 338, 318.057 342.711, 313.220 355 C 310.532 361.831, 305.381 380.275, 304.475 386.315 C 303.859 390.424, 304.029 390.973, 306.395 392.523 C 312.048 396.227, 318.716 392.210, 321.181 383.615 C 322.684 378.372, 322.596 378.453, 324.616 380.473 C 326.650 382.508, 331.324 381.912, 334.309 379.238 C 336.196 377.548, 336.233 377.590, 335.625 380.750 C 335.281 382.538, 334.751 385.294, 334.448 386.876 C 333.732 390.606, 336.083 393, 340.461 393 C 345.654 393, 347.675 390.475, 350.465 380.500 C 352.791 372.185, 358 344.770, 358 340.847 C 358 335.973, 351.427 334.564, 345.940 338.261 M 406.500 356.502 C 400.775 358.526, 396 364.021, 396 368.585 C 396 371.363, 396.787 372.987, 399.400 375.600 C 401.270 377.470, 403.520 379, 404.400 379 C 405.280 379, 406 379.398, 406 379.883 C 406 381.084, 402.359 381.970, 397.357 381.986 C 394.606 381.995, 393.021 382.504, 392.638 383.500 C 392.322 384.325, 391.429 385, 390.654 385 C 388.045 385, 386.590 387.804, 387.810 390.482 C 391.659 398.931, 410.852 397.907, 418.477 388.845 C 420.433 386.521, 421 384.731, 421 380.885 C 421 376.489, 420.551 375.442, 417.063 371.711 L 413.126 367.500 417.813 366 C 422.025 364.652, 422.532 364.164, 422.818 361.185 C 422.993 359.361, 422.601 357.224, 421.946 356.435 C 420.404 354.577, 411.840 354.614, 406.500 356.502 M 474.500 356.480 C 468.875 358.500, 464 364.039, 464 368.409 C 464 372.465, 467.752 377.470, 471.497 378.410 C 476.914 379.770, 473.086 381.961, 465.250 381.986 C 462.913 381.994, 461 382.417, 461 382.927 C 461 383.436, 459.652 384.526, 458.005 385.347 C 455.676 386.509, 454.843 386.568, 454.255 385.610 C 452.812 383.258, 448.858 381.224, 446.685 381.717 C 445.483 381.990, 446.499 381.153, 448.941 379.857 C 454.818 376.739, 456.989 373.521, 457.658 366.941 C 458.124 362.350, 457.870 361.070, 456.032 358.750 C 454.154 356.377, 453.144 356.003, 448.677 356.022 C 441.429 356.053, 435.965 358.838, 431.115 364.974 C 427.338 369.752, 424 377.840, 424 382.214 C 424 386.373, 426.928 391.072, 430.432 392.536 C 436.620 395.122, 449.136 393.901, 453.170 390.318 C 454.663 388.992, 454.959 389.054, 455.950 390.907 C 457.688 394.153, 462.709 396.200, 468.937 396.200 C 475.682 396.200, 481.324 394.037, 485.750 389.753 C 488.616 386.979, 489 385.979, 489 381.281 C 489 376.454, 488.624 375.547, 484.985 371.600 L 480.971 367.245 485.454 366.116 C 490.945 364.733, 492.672 362.179, 490.787 358.231 C 489.625 355.798, 488.883 355.475, 483.991 355.272 C 480.971 355.146, 476.700 355.690, 474.500 356.480 M 370.017 357.701 C 368.682 358.636, 366.788 359.460, 365.809 359.532 C 359.197 360.020, 352.455 376.549, 355.005 386.019 C 356.530 391.683, 360.536 393.991, 368.849 393.996 C 376.827 394.001, 381.242 391.970, 384.901 386.615 C 392.625 375.306, 392.156 361.506, 383.904 357.265 C 380.398 355.463, 372.874 355.700, 370.017 357.701 M 442.400 369.765 C 440.830 370.814, 438.759 375, 439.810 375 C 440.708 375, 443.126 372.501, 444.407 370.250 C 445.190 368.874, 444.121 368.616, 442.400 369.765 M 370.196 378.298 C 366.303 382.314, 366.001 385, 369.443 385 C 372.395 385, 375 381.614, 375 377.777 C 375 374.178, 374.094 374.276, 370.196 378.298 M 439.500 383 C 438.769 384.183, 439.748 384.183, 442.500 383 C 444.428 382.171, 444.421 382.138, 442.309 382.070 C 441.104 382.032, 439.840 382.450, 439.500 383 M 358.633 403.434 C 355.309 406.758, 354.272 408.988, 352.073 417.543 C 351.199 420.946, 350.438 421.799, 347.267 422.934 C 345.195 423.676, 342.997 424.469, 342.382 424.698 C 341.647 424.970, 341.247 423.237, 341.215 419.638 C 341.157 413.199, 338.167 405.695, 334.980 403.989 C 333.714 403.312, 331.221 403.066, 329.136 403.413 C 327.136 403.745, 324.054 404.001, 322.287 403.980 C 314.497 403.889, 307.007 410.190, 301.462 421.500 C 295.733 433.184, 293.825 443.417, 295.976 450.917 C 298.993 461.436, 312.464 465.711, 322.681 459.393 C 328.321 455.905, 335.153 446.363, 337.625 438.520 C 339.275 433.286, 339.537 433, 342.683 433 C 344.507 433, 346 433.189, 346 433.421 C 346 433.653, 345.139 437.590, 344.088 442.171 C 340.692 456.958, 340.568 459.584, 343.175 461.410 C 346.376 463.652, 349.706 463.385, 351.403 460.750 C 352.200 459.512, 354.944 452.096, 357.502 444.268 L 362.152 430.036 366.326 428.969 C 372.579 427.370, 372.787 427.266, 373.896 425.195 C 375.467 422.259, 373.134 419.800, 368.780 419.800 L 365.180 419.800 368.089 413.650 C 371.469 406.505, 371.700 403.944, 369.171 401.655 C 366.217 398.982, 362.449 399.618, 358.633 403.434 M 384.455 409.455 C 381.583 412.326, 381.440 413.297, 383.571 415.429 C 385.806 417.663, 391.574 417.426, 394 415 C 396.596 412.404, 396.530 410.485, 393.777 408.557 C 390.581 406.318, 387.273 406.636, 384.455 409.455 M 318.555 427.928 C 310.884 439.598, 308.036 449.125, 311.387 451.906 C 314.400 454.407, 320.875 442.445, 323.142 430.190 C 324.989 420.202, 323.966 419.698, 318.555 427.928 M 380 424.294 C 375.563 426.539, 365.893 453.453, 367.386 459.402 C 368.357 463.272, 372.205 464.239, 377.431 461.927 C 381.184 460.267, 382.099 459.310, 382.889 456.217 C 383.410 454.172, 385.442 446.781, 387.403 439.790 C 389.364 432.800, 390.719 426.432, 390.415 425.639 C 389.402 423, 383.949 422.296, 380 424.294 M 405.500 424.657 C 400.336 427.370, 395.865 432.275, 392.879 438.500 C 388.369 447.905, 389.208 455.267, 395.225 459.068 C 401.207 462.848, 418.820 460.239, 420.718 455.291 C 421.638 452.894, 415.791 448.002, 412.819 448.682 C 411.543 448.974, 412.515 448.153, 414.977 446.857 C 420.761 443.812, 423.386 439.279, 423.451 432.227 C 423.492 427.725, 423.108 426.509, 421.139 424.913 C 418.191 422.524, 409.819 422.387, 405.500 424.657 M 452.500 424.392 C 450.300 425.085, 447.439 426.221, 446.143 426.918 C 444.438 427.835, 443.483 427.883, 442.693 427.093 C 442.092 426.492, 439.883 426, 437.785 426 C 434.554 426, 433.668 426.497, 431.992 429.250 C 429.620 433.145, 424.372 447.379, 422.922 453.850 C 421.963 458.128, 422.060 458.631, 424.181 460.347 C 425.956 461.785, 427.596 462.101, 431.385 461.737 C 437.052 461.192, 437.440 460.797, 445.233 447.626 C 450.003 439.564, 452.294 436.961, 453.532 438.199 C 453.777 438.444, 452.568 442.846, 450.846 447.981 C 447.818 457.011, 447.776 457.363, 449.588 458.688 C 451.979 460.436, 456.702 459.499, 459.892 456.642 C 465.333 451.768, 470.369 435.589, 468.616 428.607 C 467.377 423.669, 460.507 421.873, 452.500 424.392 M 485.250 424.031 C 484.012 424.529, 483 425.386, 483 425.936 C 483 426.487, 482.388 426.702, 481.640 426.415 C 477.675 424.894, 470.762 435.771, 469.461 445.581 C 468.016 456.478, 473.219 461.460, 485.402 460.845 C 494.419 460.389, 497.766 458.158, 501.932 449.821 C 504.428 444.824, 505 442.448, 505 437.063 C 505 429.708, 503.662 426.911, 498.989 424.494 C 495.813 422.852, 488.774 422.615, 485.250 424.031 M 406.388 438.531 C 405.475 439.923, 405.012 441.346, 405.358 441.692 C 406.219 442.553, 410 439.012, 410 437.345 C 410 435.192, 408.185 435.788, 406.388 438.531 M 484.750 445.459 C 481.284 449.637, 481.174 452, 484.443 452 C 487.395 452, 490 448.614, 490 444.777 C 490 441.111, 488.159 441.350, 484.750 445.459 M 405 450 C 405 451.174, 405.769 451.174, 408.500 450 C 410.272 449.238, 410.187 449.133, 407.750 449.070 C 406.238 449.032, 405 449.450, 405 450" stroke="none" fill="black" fill-rule="evenodd"/>
</svg>